<mxfile host="Electron" modified="2023-12-12T09:41:38.902Z" agent="Mozilla/5.0 (X11; Linux x86_64) AppleWebKit/537.36 (KHTML, like Gecko) draw.io/22.1.2 Chrome/114.0.5735.289 Electron/25.9.4 Safari/537.36" etag="QrX-h7IWQxM1I0ha-4zB" version="22.1.2" type="device" pages="6">
  <diagram name="cross" id="lpAjXQv8AwS29W3QLn_L">
    <mxGraphModel dx="3124" dy="2086" grid="0" gridSize="10" guides="1" tooltips="1" connect="1" arrows="1" fold="1" page="0" pageScale="1" pageWidth="850" pageHeight="1100" math="0" shadow="0">
      <root>
        <mxCell id="0" />
        <mxCell id="1" parent="0" />
        <mxCell id="EUwNW4hLWnvYlgiLgIoT-3" value="" style="shape=cross;whiteSpace=wrap;html=1;strokeWidth=10;" vertex="1" parent="1">
          <mxGeometry width="1200" height="1200" as="geometry" />
        </mxCell>
      </root>
    </mxGraphModel>
  </diagram>
  <diagram id="p4GFcEFgczowwYf07_WQ" name="Page-2">
    <mxGraphModel dx="1762" dy="1243" grid="0" gridSize="10" guides="1" tooltips="1" connect="1" arrows="1" fold="1" page="0" pageScale="1" pageWidth="850" pageHeight="1100" math="0" shadow="0">
      <root>
        <mxCell id="0" />
        <mxCell id="1" parent="0" />
        <mxCell id="mvN1miOnui_aU0xOgrRP-1" value="" style="shape=image;verticalLabelPosition=bottom;labelBackgroundColor=default;verticalAlign=top;aspect=fixed;imageAspect=0;image=data:image/png,iVBORw0KGgoAAAANSUhEUgAAA+gAAAMgCAYAAACwGEg9AAAACXBIWXMAAA7EAAAOxAGVKw4bAAAa20lEQVR42u3doW7jDL7G4f93UmTYNQ0NiGSSG4ilvQtfRLmZmUmuw2xAWclK9g2YRAoINc0GmkU95Hwj7bZzmrZJm6TPAwus0RvbMz/V8fz1/Pz8HAAAAMC3+h8TAAAAgEAHAAAABDoAAAAIdAAAAECgAwAAgEAHAAAABDoAAAAIdAAAAECgAwAAgEAHAAAABDoAAAAIdAAAAECgAwAAgEAHAAAABDoAAAAIdAAAAOANdybgO2y32yjLMsZxjCzLIkkSo7zDOI6xXq8jSZKo6zpms5lRAADgyv31/Pz8bAa+Os7n83kcDgdjnMBkMonNZiPSAQDgynnEnS9XlqU4P6HD4RBlWRoCAAAEOrzPOI5GsCkAACDQ+W5ZlhnBpgAAwH/xkji+3GsvhFsul5HnuXGO0LZtdF335qYAAIBAh3fL8zyqqjLEEaqqehHoAADA9fOIOwAAAAh0AAAAQKADAACAQAcAAAAEOgAAAAh0AAAAQKADAACAQAcAAAAEOgAAAAh0AAAAQKADAACAQAcAAAAEOgAAAAh0AAAAQKADAACAQAcAAAAEOgAAAAh0AAAAQKADAACAQAcAAAAEOgAAAAh0AAAAQKADAACAQAcAAAAEOgAAAAh0AAAAQKADAACAQAcAAAAEOgAAAAh0AAAAQKADAACAQAcAAAAEOgAAANyAOxMA8J22222UZRnjOEaWZZEkiVHgSozjGOv1OpIkibquYzabGQVAoANwrXE+n8/jcDhERMTT05NR4Eo9Pj7GZrMR6QCf4BF3AL5NWZa/4xy4bofDIcqyNASAQAfgGo3jaARwTQMg0AH4blmWGQFc0wD8H99BB+DbvPZCuOVyGXmeGwcuXNu20XXdm9c0AAIdgCuV53lUVWUIuHBVVb0IdAA+xyPuAAAAINABAAAAgQ4AAAACHQAAABDoAAAAINABAAAAgQ4AAAACHQAAABDoAAAAINABAAAAgQ4AAAACHQAAABDoAAAAcMHuTAAAwC3a7XbRNE1ERBRFEWmaGgW46PuLQAcA4Cb/8bxYLGIYhoiIWK1W0fe9SAcu+v7iEXcAAG5O0zS///EcETEMw+/fdgFc6v1FoAMAcHP2+/1RPwO4pPuLQAcAAIALINABAABAoAMAAAACHQAAAAQ6AAAAINABAABAoAMAAAACHQAAAAQ6AAAAINABAABAoAMAAAACHQAAAAQ6AAAAINABAABAoAMAAAACHQAAAAQ6AAAAINABAABAoAMAAAACHQAAAAQ6AAAAINABAABAoAMAAAACHQAAAAQ6AAAAINABAABAoAMAAAACHQAAAAQ6AAAAINABAABAoAMAAAACHQAAAAQ6AAAAINABAABAoAMAAAACHQAAAAQ6AAAAINABAABAoAMAAAACHQAAAAQ6AAAAINABAABAoAMAAAACHQAAAAQ6AAAAINABAABAoAMAAAACHQAAAAQ6AAAAINABAABAoAMAAAACHQAAAAQ6AAAAINABAABAoAMAAAACHQAAAH6YOxMAcEnato2qqgxxpHEcY71eR5IkUdd1zGYzo7zDdruNsixjHMfIsiySJDHKO65VAAQ6ADcUl/+t67rous44H/D4+BibzUakvyPO5/N5HA6HiIh4enoyyhmuaQCO5xF3AL7Ner02wgkdDocoy9IQRyrL8nec45oGEOgA/GgeJz49v8G0lWsaQKADwLvVdR2TycQQJ5RlmRFs9S0mk0nUdW0IgE/wHXQAvs1sNovNZuMlXR/Utu2L7+vb73ivbbVcLiPPc+McyUsKAQQ6ADcW6b9+/TLEB1RV5YV6J5bnuf9FAIBv4xF3AAAAEOgAAACAQAcAAACBDgAAAAh0AAAAEOgAAACAQAcAAACBDgAAAAh0AAAAEOgAAACAQAcAAACBDgAAAAh0AAAAuGB3pzrQdruNsixjHMfIsiySJLEur2rb1ghn2LSqKkPwqnEcY71eR5IkUdd1zGYzowAA3Gqgb7fbmM/ncTgcIiLi6enJsrw7IPj4Vl3XRdd1xuFNj4+PsdlsRDoAwAU6ySPuZVn+jnP4iPV6bQRb8QUOh0OUZWkIAIBbDXS//eSzfCXCVnwd92wAgBsO9CzLLMmHTSaTqOvaEEeq6zomk4khcM8GALgxJ/kO+mu/0Vsul5HnuYV5lZdWfdxsNovNZuOljBylbdsX7ydwvgAA3HCgvybPc2+VhjNG+q9fvwzBm6qq8gJBAIAr4f9BBwAAAIEOAAAACHQAAAAQ6AAAAIBABwAAAIEOAAAACHQAAAAQ6AAAAIBABwAAAIEOAAAACHQAAAAQ6AAAAIBABwAAAIEOAAAACHQAAAAQ6AAAAIBABwAAAIEOAAAACHQAAAAQ6AAAAIBABwAAAIEOAAAACHQAAAAQ6AAAAIBABwAAAIEOAAAACHQAAAAQ6AAAAIBABwAAAIEOAAAACHQAAAAQ6AAAAIBABwAAAIEOAAAACHQAAAAQ6AAAAIBABwAAAIEOAAAACHQAAAAQ6AAAAIBABwAAAIEOAAAACHQAAAAQ6AAAAIBABwAAAIEOAAAACHQAAAAQ6AAAAIBABwAAAIEOAAAACHQAAAAQ6AAAAIBABwAAAIEOAAAACHQAAAAQ6AAAAIBABwAAAIEOAAAACHQAAAAQ6AAAAIBABwAAAIEOAAAACHQAAAAQ6AAAAIBABwAAAAQ6AAAACHQAAABAoAMAAIBABwAAAAQ6AAAACHQAAABAoAMAAIBABwAAAF64O9eB27aNqqoszKvGcYz1eh1JkkRd1zGbzYzyDtvtNsqyjHEcI8uySJLEKPzxXgwAwA8K9HEcX/ys67rous7CvOnx8TE2m41If0ecz+fzOBwOERHx9PRkFD59zwYA4Pud5BH39XptST7scDhEWZaGOFJZlr/jHNyzAQAE+n/weC2f5Td6tuLruGcDANxwoNd1HZPJxJp8WJZlRrAVX2AymURd14YAALhAJ/kO+mw2i81m46VVHKVt2xfvJ3C+HO+1rZbLZeR5bhxe5aWMAAA/KND/jvRfv35ZlDdVVeUFgieW57n/NQEAAK6c/wcdAAAABDoAAAAg0AEAAECgAwAAAAIdAAAABDoAAAAg0AEAAECgAwAAAAIdAAAABDoAAAAg0AEAAECgAwAAAAIdAAAALtidCQAA+Anato2qqgxxY+7v76MoikjT9KL+XLvdLpqmif1+70O6wXuJQAcAgCON4/jiZ13XRdd1xrlBq9Uq+r6/mEjf7XaxWCxiGAYfzg++53yER9wBALg56/XaCD/IMAzRNM3F/HmaphHn7jkCHQAAAK6VQAcA4OZkWWaEH2Q6nUZRFBfz5ymKIqbTqQ/GPefdfAcdAICbkyTJi58tl8vI89w4N+YSXxKXpmn0fe8lcTeqbdsX77N47Z4j0AEA4A/yPPcWd7400h8eHgxxg6qqOtsLJz3iDgAAABdAoAMAAIBABwAAAAQ6AAAACHQAAABAoAMAAIBABwAAAAQ6AAAACHQAAABAoAMAAIBABwAAAAQ6AAAACHQAAABAoAMAAIBABwAAAAQ6AAAACHQAAABAoAMAAIBABwAAAAQ6AAAACHQAAABAoAMAAIBABwAAAAQ6AAAACHQAAABAoAMAAIBABwAAAAQ6AAAACHQAAABAoAMAAIBABwAAAAQ6AAAACHQAAADgs+5MAMB32m63UZZljOMYWZZFkiRGOVLbtkY4w6ZVVRniSOM4xnq9jiRJoq7rmM1mRgEQ6ABca5zP5/M4HA4REfH09GSUEwQTH9+q67rous44H/D4+BibzUakA3yCR9wB+DZlWf6Oc05jvV4bwVbf4nA4RFmWhgAQ6ABcI7/tPT1fEbCVaxpAoAPAu2VZZoQTmkwmUde1IY5U13VMJhNDuKYBLobvoAPwbV77DeZyuYw8z41zJC/p+rjZbBabzcZLCj+obdsX39e3H4BAB+CG5HnuLdp8aaT/+vXLEB9QVZUX6gGcmEfcAQAAQKADAAAAAh0AAAAEOgAAACDQAQAAQKADAAAAAh0AAAAEOgAAACDQAQAAQKADAAAAAh0AAAAEOgAAACDQAQAAQKADAAAAAh0AAAAEOgAAACDQAQAAQKADAAAAAh0AAAAEOgAAACDQAQAAQKADAAAAAh0AAAAEOgAAACDQAQAAQKADAAAAAh0AAAAEOgAAACDQAQAAQKADAAAAAh0AAAAEOgAAACDQAQAAQKADAAAAAh0AAAAEOgAAACDQAQAAQKADAAAAAh0AAAAEOgAAACDQAQAAQKADAAAAAh0AAAAEOgAAACDQAQAAQKADAAAAAh0AAAAEOgAAACDQAQAAQKADAAAAAh0AAAAEOgAAACDQAQAAQKADAAAAAh0AAAAEOgAAACDQAQAAQKADAAAAAh0AAAAEOgAAACDQAQAAQKADAAAAAh0AAAAEOgAAACDQAQAAAIEOAAAAAh0AAAAQ6AAAACDQAQAAAIEOAAAAAh0AAAAQ6AAAACDQAQAAgBfuTMAlaNs2qqoyxJFbgfsB12Icx1iv1xERkWVZJEliFH8fub8A7n8CnUv6x9p/67ouuq4zzgk3BfcDLs3T05MR/H3k/gK4//0/POLOl/v7NynYFJy74Jp2fwHc/wQ638jjjTYF5y64pt1fAPe/l/56fn5+Nidfabvdxnw+j8PhYIwTmEwmsdlsYjabGQP3A8DfR+4vwBXf/wQ63/aXZlmWMY6jlwZ9wN8vXUqSJOq6Fue4H3Dx96sIL4nz95H7C+D+J9ABAADgCvgOOgAAAAh0AAAAQKADAACAQAcAAAAEOgAAAAh0AAAAQKADAACAQAcAAAAEOgAAAAh0AAAAQKADAACAQAcAAAAEOgAAAAh0AAAAQKADAACAQAcAAAAEOgAAAAh0AAAAQKADAACAQAcAAAAEOgAAAAh0AAAAQKADAACAQAcAAAAEOgAAAAh0AAAAQKADAACAQAcAAAAEOgAAAAh0AAAAQKADAACAQAcAAAAEOgAAANyAOxMA8B7b7TbKsoxxHCPLskiSxCj80TiOsV6vIyKcLxx9viRJEnVdx2w2Mwrwo/z1/Pz8bAYAjo3z+Xweh8PBGMBZTSaT2Gw2Ih34UTziDsDRyrIU58CXOBwOUZalIQCBDgCvGcfRCIB7DoBAB+C7ZVlmBMA9B+BMvCQOgKO99oKv5XIZeZ4bh1d5SRzHats2uq57854DINAB4A/yPI+qqgwBfEpVVS8CHeCn8Yg7AAAACHQAAABAoAMAAIBABwAAAAQ6AAAACHQAAABAoAMAAIBABwAAAAQ6AAAACHQAAABAoAMAAIBABwAAAAQ6AAAACHQAAABAoAMAAIBABwAAAAQ6AAAACHQAAABAoAMAAIBABwAAAAQ6AAAACHQAAABAoAMAAIBABwAAAAQ6AAAACHQAAABAoAMAAIBABwAAAAQ6AAAACHQAAABAoAMAAIBABwAAAAQ6AAAACHQAAABAoAMAAIBABwAAAAQ6AAAACHQAAABAoAMAAIBABwAAAAQ6AAAACHQAAABAoAMAAIBABwAAAAQ6AAAACHQAAABAoAMAAIBABwAAAAQ6AAAACHQAAABAoAMAAIBABwAAAAQ6AAAA/CB3JgDgM9q2jaqqDAF8+l4CINAB4Ej//ve/X/ys67rous44wJfccwBumUfcATjav/71LyMA7jkAAh0AAAAEOgDEP//5TyMA7jkAZ+I76AAc7R//+MeLny2Xy8jz3DjAp7Rt++J9Fq/dcwAEOgD8QZ7n3uIOfFpVVV44Cfx4HnEHAAAAgQ4AAAAIdAAAABDoAAAAgEAHAAAAgQ4AAAAIdAAAABDoAAAAgEAHAAAAgQ4AAAAIdAAAABDoAAAAgEAHAAAAgQ4AAAAIdAAAABDoAAAAgEAHAAAAgQ4AAAAIdAAAABDoAAAAgEAHAAAAgQ4AAAAIdAAAABDoAAAAgEAHAAAAgQ4AAAAIdAAAABDoAAAAgEAHAAAAgQ4AAAAIdAAAABDoAAAAgEAHAACAG3BnAgBuyW63i6ZpYr/fn/S49/f3URRFpGlqZFwfrg8AgQ4Ab8XHYrGIYRjOcvzVahV934sQXB+uD4Cz8Ig7ADejaZqzxUdExDAM0TSNoXF9uD4ABDoAAAAIdAC4cEVRxHQ6Pdvxp9NpFEVhaFwfrg+As/AddABuRpqm0fe9l2CB6wNAoAPAJUTIw8ODIcD1AXB1POIOAAAAAh0AAAAQ6AAAACDQAQAAAIEOAAAAAh0AAAAQ6AAAACDQAQAAAIEOAAAAAh0AAAAQ6AAAACDQAQAAAIEOAAAAAh0AAAAQ6AAAACDQAQAAAIEOAAAAAh0AAAAQ6AAAACDQAQAAAIEOAAAAAh0AAAAQ6AAAACDQAQAAAIEOAAAAAh0AAAAQ6AAAACDQAQAAAIEOAAAAAh0AAAAQ6AAAACDQAQAAAIEOAAAAN+DOBAB8Rtu2UVXVp49zf38fRVFEmqZG5Wrtdrtomib2+/1Jj+v6ABDoAPAfxnF88bOu66LrupMcf7VaRd/3IoSrjfPFYhHDMJzl+K4PgNvnEXcAjrZer896/GEYomkaQ3OVmqY5W5y7PgAEOgAAACDQAbg0WZad9fjT6TSKojA0V6koiphOp64PAD7Md9ABOFqSJC9+tlwuI8/zTx/bS7C4dmmaRt/3XhIHgEAH4HvkeX6St7jDrUT6w8ODIQD4EI+4AwAAgEAHAAAABDoAAAAIdAAAAECgAwAAgEAHAAAABDoAAAAIdAAAAECgAwAAgEAHAAAABDoAAAAIdAAAAECgAwAAwAW7MwEAt2S320XTNLHf70963Pv7+yiKItI0NbLPFwAEOgC8FW+LxSKGYTjL8VerVfR9L+J8vgBwFh5xB+BmNE1ztniLiBiGIZqmMbTPFwAEOgAAAAh0ALhwRVHEdDo92/Gn02kURWFony8AnIXvoANwM9I0jb7vvUTM5+vzBUCgA8AlRNzDw4MhfL4AcHU84g4AAAACHQAAABDoAAAAINABAAAAgQ4AAAACHQAAABDoAAAAINABAAAAgQ4AAAACHQAAABDoAAAAINABAAAAgQ4AAAAX7M4EAHC9drtdNE0T+/3+ov+c9/f3URRFpGnqQwMAgQ4Atxfni8UihmG4ij/varWKvu9FOgD8gUfcAeBKNU1zNXEeETEMQzRN44MDAIEOAAAAAh0AOLGiKGI6nV7Nn3c6nUZRFD44APgD30EHgCuVpmn0fe8lcQAg0AGAS4j0h4cHQwDADfCIOwAAAAh0AAAAQKADAACAQAcAAAAEOgAAAAh0AAAAQKADAACAQAcAAAAEOgAAAAh0AAAAQKADAACAQAcAAAAEOgAAAAh0AAAAQKADAACAQAcAAAAEOgAAAAh0AAAAQKADAACAQAcAAAAEOgAAAAh0AAAAQKADAACAQAcAAAAEOgAAAAh0AAAAQKADAACAQAcAAAAEOgAAAAh0AAAAQKADAACAQAcAAAAEOgAAANyAOxMAcEt2u100TRP7/f6kx72/v4+iKCJNUyM7X76c8w9AoAPA1cXWYrGIYRjOcvzVahV934sk58u3cP4B3D6PuANwM5qmOWtsDcMQTdMY2vnyLZx/AAIdAAAAEOgAcLyiKGI6nZ7t+NPpNIqiMLTz5Vs4/wBun++gA3Az0jSNvu+9JI5vP19OzfkHINAB4Cqj6+HhwRA4XwC4Oh5xBwAAAIEOAAAACHQAAAAQ6AAAAIBABwAAAIEOAAAACHQAAAAQ6AAAAIBABwAAAIEOAAAACHQAAAAQ6AAAAIBABwAAAIEOAAAACHQAAAAQ6AAAAIBABwAAAIEOAAAACHQAAAAQ6AAAAIBABwAAAIEOAAAACHQAAAAQ6AAAAIBABwAAAIEOAAAACHQAAAAQ6AAAAIBABwAAAIEOAAAACHQAAAAQ6AAAAIBABwAAgBtwZwIA4G+73S6apon9fn/S497f30dRFJGmqZEBQKADAG/F+WKxiGEYznL81WoVfd+LdAD4A4+4AwAREdE0zdniPCJiGIZomsbQACDQAQAAQKADABeuKIqYTqdnO/50Oo2iKAwNAH/gO+gAQEREpGkafd97SRwACHQA4BIi/eHhwRAA8A084g4AAAACHQAAABDoAAAAINABAAAAgQ4AAAACHQAAABDoAAAAINABAAAAgQ4AAAACHQAAABDoAAAAINABAAAAgQ4AAAAX7M4EANyS3W4XTdPEfr8/6XHv7++jKIpI09TIzhfnCwACHQDeiq3FYhHDMJzl+KvVKvq+F13OF+cLAGfhEXcAbkbTNGeLrYiIYRiiaRpDO1+cLwAIdAAAABDoAHDhiqKI6XR6tuNPp9MoisLQzhfnCwBn4TvoANyMNE2j73sv/cL5AoBAB4BLiK6HhwdD4HwB4Op4xB0AAAAEOgAAACDQAQAAQKADAAAAAh0AAAAEOgAAACDQAQAAQKADAAAAAh0AAAAEOgAAACDQAQAAQKADAAAAAh0AAAAEOgAAACDQAQAAQKADAAAAAh0AAAAEOgAAACDQAQAAQKADAAAAAh0AAAAEOgAAACDQAQAAQKADAAAAAh0AAAAEOgAAACDQAQAAQKADAAAAAh0AAAAEOgAAACDQAQAAQKADAAAAAh0AAAAEOgAAACDQAQAAQKADAAAAAh0AAAAEOgAAACDQAQAAQKADAAAAAh0AAAAEOgAAACDQAQAAQKADAAAAAh0AAAAEOgAAACDQAQAAQKADAAAAAh0AAAAEOgAAACDQAQAAQKADAAAAAh0AAAAEOgAAACDQAQAAQKADAAAAAh0AAAAEOgAAACDQAQAAQKADAAAAAh0AAAAEOgAAACDQAQAAQKADAAAAAh0AAAAQ6AAAACDQAQAAAIEOAAAAAh0AAAAQ6AAAACDQAQAAAIEOAAAAAh0AAAB44c4EAHxG27ZRVZUhgE/fSwAEOgAcaRzHFz/rui66rjMO8CX3HIBb5hF3AI62Xq+NALjnAAh0AL5bkiRGANxzAM7kr+fn52czAHCM7XYb8/k8DoeDMYCzmkwmsdlsYjabGQMQ6ADwp0gvyzLGcYwsy/yGCziZcRxjvV5HkiRR17U4BwQ6AAAA8PV8Bx0AAAAEOgAAACDQAQAAQKADAAAAAh0AAAAEOgAAACDQAQAAQKADAAAAAh0AAAAEOgAAACDQAQAAQKADAAAAAh0AAAAEOgAAACDQAQAAQKADAAAAb/lfTnK8Ed1Pwr8AAAAASUVORK5CYII=;" vertex="1" parent="1">
          <mxGeometry x="-283" y="-307" width="1000" height="800" as="geometry" />
        </mxCell>
      </root>
    </mxGraphModel>
  </diagram>
  <diagram id="hOOjwyrkOpv7qhLfCdq-" name="world_2">
    <mxGraphModel dx="3805" dy="2508" grid="0" gridSize="10" guides="1" tooltips="1" connect="1" arrows="1" fold="1" page="0" pageScale="1" pageWidth="850" pageHeight="1100" math="0" shadow="0">
      <root>
        <mxCell id="0" />
        <mxCell id="1" parent="0" />
        <mxCell id="V0sBG2xRQJGOPjaAOT6Z-1" value="" style="shape=image;verticalLabelPosition=bottom;labelBackgroundColor=default;verticalAlign=top;aspect=fixed;imageAspect=0;image=data:image/png,iVBORw0KGgoAAAANSUhEUgAAAPsAAAFHCAYAAABnDTocAAAABHNCSVQICAgIfAhkiAAAABl0RVh0U29mdHdhcmUAZ25vbWUtc2NyZWVuc2hvdO8Dvz4AAAAtdEVYdENyZWF0aW9uIFRpbWUAVHVlIDEyIERlYyAyMDIzIDA0OjM1OjQxIFBNICswNzqH4/cAAAauSURBVHic7dkxbuJ4GMbhb5apOIgLJJ8hXMudO58mRbqU9hmQKHwQd1a22ggmUXY0S2DhfZ4OTPHK0i8xf368vb29FfDw/rr1AOA6fv76xjzP1XVdLctSbdvWdru9xS7gDyzLUofDobbbbQ3DUE3TvF/7cfoYP89z7Xa7Wtf1JkOBy9lsNnU8Ht+DP3uM77pO6PAg1nWtruveX5/FvizL1QcB3+e06bPY27a9+hjg+5w2fXZA99lh3NPTU+33+28fBfw34zjWNE1n7502/eE0/lf7/b76vr/4MOCy+r7/EPspv7NDCLFDCLFDCLFDCLFDCLFDCLFDCLFDCLFDCLFDCLFDCLFDCLFDCLFDCLFDCLFDCLFDCLFDCLFDCLFDCLFDCLFDCLFDCLFDCLFDCLFDCLFDCLFDCLFDCLFDCLFDCLFDCLFDCLFDCLFDCLFDCLFDCLFDCLFDCLFDCLFDCLFDCLFDCLFDCLFDCLFDCLFDCLFDCLFDCLFDCLFDCLFDCLFDCLFDCLFDCLFDCLFDCLFDCLFDCLFDCLFDCLFDCLFDCLFDCLFDCLFDCLFDCLFDCLFDCLFDCLFDCLFDCLFDiJ//9oFxHKvv+ytMeQzLstThcKjtdlvDMFTTNLeedFfmea6u62pZlmrbtrbb7a0n3Y1xHL+8fhb7siwfPjBNU03TdNFRKV5eXup4PAr+N83zXLvdrtZ1raqq19fXGy+6f6dNnz3GHw6Hq495ZOu6Vtd1t55xN7quew+dyzht+ix2j0yX99nTEp9zry7vtOmz2IdhqM1mc/VBj6xt21tPuBvu1WVtNpsahuH99dl39qZp6ng8OiD5Q+M4fjjfcP9+32f36unpqfb7/fXH3KmvDog/nMY3TVPPz89XHfgo+r53mHlh+/3er0EX4nd2CCF2CCF2CCF2CCF2CCF2CCF2CCF2CCF2CCF2CCF2CCF2CCF2CCF2CCF2CCF2CCF2CCF2CCF2CCF2CCF2CCF2CCF2CCF2CCF2CCF2CCF2CCF2CCF2CCF2CCF2CCF2CCF2CCF2CCF2CCF2CCF2CCF2CCF2CCF2CCF2CCF2CCF2CCF2CCF2CCF2CCF2CCF2CCF2CCF2CCF2CCF2CCF2CCF2CCF2CCF2CCF2CCF2CCF2CCF2CCF2CCF2CCF2CCF2CCF2CCF2CCF2CCF2CCF2CCF2CCF2CCF2CCF2CCF2CCF2CCF2CCF2CCF2CCF2CCF2CCF2CCF2CCF2CCF2CCF2CCF2CCF2CCF2CCF2CCF2CCF2CCF2CCF2CCF2CCF2CCF2CCF2CCF2CCF2CCF2CCF2CCF2CCF2CCF2CCF2CCF2CCF2CCF2CCF2CCF2CCF2CCF2CCF2CCF2CCF2CCF2CCF2CCF2CCF2CCF2CCF2CCF2CCF2CCF2CCF2CCF2CCF2CCF2CCF2CCF2CCF2CCF2CCF2CCF2CCF2CCF2CCF2CCF2CCF2CCF2CCF2CCF2CCF2CCF2CCF2CCF2CCF2CCF2CCF2CCF2CCF2CCF2CCF2CPHz1zfmea6u62pZlmrbtrbb7S123aVxHG894eGM41h93996xt1YlqUOh0Ntt9sahqGapnm/dhb7PM+12+1qXdeqqnp9fb3u0ge0LMutJ9yNz+7VNE01TdMN1ty/l5eXOh6P78GfPcZ3XfceOpdxOBxuPeFuuFeXta5rdV33/vosdv+FLs/XoN/nXl3eadNnsbdte/Uxj2yz2dQwDLeecTeGYajNZnPrGQ/ltOmz7+yf/WV9enqq/X7/7aMexVcHJHytaZo6Ho8OiP/QOI4fzjdO79+H0/hf7fd7p6FcTdM09fz8fOsZd6nv+y8PM/3ODiHEDiHEDiHEDiHEDiHEDiHEDiHEDiHEDiHEDiHEDiHEDiHEDiHEDiHEDiHEDiHEDiHEDiHEDiHEDiHEDiHEDiHEDiHEDiHEDiHEDiHEDiHEDiHEDiHEDiHEDiHEDiHEDiHEDiHEDiHEDiHEDiHEDiHEDiHEDiHEDiHEDiHEDiHEDiHEDiHEDiHEDiHEDiHEDiHEDiHEDiHEDiHEDiHEDiHEDiHEDiHEDiHEDiHEDiHEDiHEDiHEDiHEDiHEDiHEDiHEDiHEDiHEDiHEDiHEDiHEDiHEDiHEDiF+/tsHxnGsvu+vMIVrWJalDodDVVW1bVvb7fbGi7iUcRy/vH4W+7IsHz4wTVNN03TRUfw/vL6+3noC3+y06bPH+H/+4gOP4bTps9g90sFjOW36x9vb29s/L+Z5rt1uV+u63mQYcDmbzaaOx2M1TVNVVX8Dp2QuUjTJwVUAAAAASUVORK5CYII=;" vertex="1" parent="1">
          <mxGeometry x="-1" y="-47" width="921.1" height="1200" as="geometry" />
        </mxCell>
      </root>
    </mxGraphModel>
  </diagram>
  <diagram id="lAiPBePjTxzoM3FJ32Qv" name="world_3">
    <mxGraphModel dx="3124" dy="2086" grid="0" gridSize="10" guides="1" tooltips="1" connect="1" arrows="1" fold="1" page="0" pageScale="1" pageWidth="850" pageHeight="1100" math="0" shadow="0">
      <root>
        <mxCell id="0" />
        <mxCell id="1" parent="0" />
        <mxCell id="wMKmxzyIyQz4VPyHBn9S-1" value="" style="shape=image;verticalLabelPosition=bottom;labelBackgroundColor=default;verticalAlign=top;aspect=fixed;imageAspect=0;image=data:image/png,iVBORw0KGgoAAAANSUhEUgAAASAAAAE2CAYAAADBDE8GAAAABHNCSVQICAgIfAhkiAAAABl0RVh0U29mdHdhcmUAZ25vbWUtc2NyZWVuc2hvdO8Dvz4AAAAtdEVYdENyZWF0aW9uIFRpbWUAVHVlIDEyIERlYyAyMDIzIDA0OjM4OjM4IFBNICswN4o92BIAAAWdSURBVHic7doxbhNpAIbhn4XKJXLrlgLJTS5AzuFD0NO5o+EcPod9ATeWKGjdWimnQ95itc6iBKQV4Bclz9NlJpa+6pXnH784n8/nARD4qx4APF+v/vvH6XQam81mjDHGarUa8/k8GQU8PY/15cW/j2Cn02nc3NyM4/E4xhhjsViM/X4vQsBP+15fLo9gm83mcnOMMY7H46VWAD/je325BOju7u7Bhx67BvB/fa8vDqGBjAABGQECMgIEZAQIyAgQkBEgICNAQEaAgIwAARkBAjICBGQECMgIEJARICAjQEBGgICMAAEZAQIyAgRkBAjICBCQESAgI0BARoCAjAABGQECMgIEZAQIyAgQkBEgICNAQEaAgIwAARkBAjICBGQECMgIEJARICAjQEBGgICMAAEZAQIyAgRkBAjICBCQESAgI0BARoCAjAABGQECMgIEZAQIyAgQkBEgICNAQEaAgIwAARkBAjICBGQECMgIEJARICAjQEBGgICMAAEZAQIyAgRkBAjICBCQESAgI0BARoCAjAABGQECMgIEZAQIyAgQkBEgICNAQEaAgIwAARkBAjICBGQECMgIEJARICAjQEBGgICMAAEZAQIyAgRkBAjICBCQESAgI0BARoCAjAABGQECMgIEZAQIyAgQkBEgICNAQEaAgIwAARkBAjICBGQECMgIEJARICAjQEBGgICMAAEZAQIyAgRkBAjICBCQESAgI0BARoCAjAABGQECMgIEZAQIyAgQkBEgICNAQEaAgIwAARkBAjICBGQECMgIEJARICAjQEBGgICMAAEZAQIyAgRkBAjICBCQESAgI0BARoCAjAABGQECMgIEZAQIyAgQkBEgICNAQEaAgIwAARkBAjICBGQECMgIEJARICAjQEBGgICMAAEZAQIyAgRkBAjICBCQESAgI0BARoCAjAABGQECMgIEZAQIyAgQkBEgICNAQObVj25ut9uxXq+vNIVref369VitVmM+n9dTvnE6ncZmsxl3d3f1FH6x7Xb76PVLgKZpenBzt9uN3W7320bR+fTp09jv939MhE6n07i5uRnH47GewpVM03T/CHY4HMotXNnxeBybzaaecbHZbMTnmTkcDs6AgM4lQMvlstzBlS0Wi7FareoZF6vVaiwWi3oGV7RcLu/PgGaz2YN/ePfu3bi9vb3mJq7gTzyEns/nY7/fO4R+orbb7YPz5Nls9uO3YLe3t96CcTXz+Xy8f/++nsFvsF6vH32h5QwIyAgQkBEgICNAQEaAgIwAARkBAjICBGQECMgIEJARICAjQEBGgICMAAEZAQIyAgRkBAjICBCQESAgI0BARoCAjAABGQECMgIEZAQIyAgQkBEgICNAQEaAgIwAARkBAjICBGQECMgIEJARICAjQEBGgICMAAEZAQIyAgRkBAjICBCQESAgI0BARoCAjAABGQECMgIEZAQIyAgQkBEgICNAQEaAgIwAARkBAjICBGQECMgIEJARICAjQEBGgICMAAEZAQIyAgRkBAjICBCQESAgI0BARoCAjAABGQECMgIEZAQIyAgQkBEgICNAQEaAgIwAARkBAjICBGQECMgIEJARICAjQEBGgICMAAEZAQIyAgRkBAjICBCQESAgI0BARoCAjAABGQECMgIEZAQIyAgQkBEgICNAQEaAgIwAARkBAjICBGQECMgIEJARICAjQEBGgICMAAEZAQIyAgRkBAjIvPrRze12O9br9ZWmAE/Vdrt99PolQNM0Pbi52+3Gbrf7baOA52uapvtHsMPhUG4BnpnD4XAfoNlsVm4BnpnZbDZenM/n8xhjfPnyZbx9+3Z8/fq13gU8cS9fvhyfP3++D9AY/0Tow4cPY5qmsVwufSsCfplpmsbhcBiz2Wx8/PhxvHnz5tsAAVyT3wEBmb8BwKHK/pHlxw0AAAAASUVORK5CYII=;" vertex="1" parent="1">
          <mxGeometry x="-283" y="-318" width="1114.84" height="1200" as="geometry" />
        </mxCell>
      </root>
    </mxGraphModel>
  </diagram>
  <diagram id="HVpA0PNbqCHjtR5_GoD0" name="Page-5">
    <mxGraphModel dx="3805" dy="2108" grid="0" gridSize="10" guides="1" tooltips="1" connect="1" arrows="1" fold="1" page="0" pageScale="1" pageWidth="850" pageHeight="1100" math="0" shadow="0">
      <root>
        <mxCell id="0" />
        <mxCell id="1" parent="0" />
        <mxCell id="EbR_X2GCt2WnL4g1VBPY-1" value="" style="shape=image;verticalLabelPosition=bottom;labelBackgroundColor=default;verticalAlign=top;aspect=fixed;imageAspect=0;image=data:image/png,iVBORw0KGgoAAAANSUhEUgAAASMAAAE1CAYAAACsr4arAAAABHNCSVQICAgIfAhkiAAAABl0RVh0U29mdHdhcmUAZ25vbWUtc2NyZWVuc2hvdO8Dvz4AAAAtdEVYdENyZWF0aW9uIFRpbWUAVHVlIDEyIERlYyAyMDIzIDA0OjM5OjM1IFBNICswN9C2EgMAAAf/SURBVHic7dwxbttKAsfh2Y0rlw5bti4CuNEFLCC34CHUp7K6NDoHbxFAugAbA69Iq1ZRqS7wFkHw9kWbhR2L1n/E7wNSiRgNrOEP5iie8vSLh4eHp1LKP/49PDz8ehnAi/2/vlyVZ1iv12W5XD7nUoDfWq/Xv33tKEbfvn07umiz2ZTNZnPSSQGU8ndz/v3rC1++fHnzyQDT9bM5RzECOIejGH38+PEc8wAm6mdzjvaM3r9/f3Tx/f19mc/no08KuGzr9fpo//lnc571bdp8PvdtGvBqy+Xyt1+G2TMCIogREEGMgAhiBEQQIyCCGAERxAiIIEZABDECIogREEGMgAhiBEQQIyCCGAERxAiIIEZABDECIogREEGMgAhiBEQQIyCCGAERxAiIIEZABDECIogREEGMgAhiBEQQIyCCGAERxAiIIEZABDECIlydewJ/Yrfblb7vy36/P+m4Nzc3peu60jTNSceFt1Tr/VFdjHa7XZnNZmW73Y4y/mq1KsMwCBJVqvn+qO4xre/70X7QpZSy3W5L3/ejjQ9jqvn+qC5GwGWqLkZd15W2bUcbv23b0nXdaOPDmGq+P6rbM2qapgzDUOUGHYyt5vujuhiV8uMHvlgszj0NiFTr/VHdYxpwmcQIiCBGQAQxAiKIERBBjIAIYgREECMgghgBEcQIiCBGQAQxAiKIERBBjIAIYgREECMgghgBEcQIiCBGQAQxAiKIERBBjIAIYgREECMgghgBEcQIiCBGQAQxAiKIERBBjIAIYgREECMgghgBEa6ec9F6vS7L5fLVb3Zzc1O6ritN07x6LDiX3W5X+r4v+/3+pONO/f44itHhcDi6aLPZlM1mc5I3XK1WZRiGyf7Aqdtutyuz2axst9tRxp/y/XH0mPb4+DjqG26329L3/ajvAWPp+360EJUy7fvDnhEQ4ShGd3d3o75h27al67pR3wPG0nVdadt2tPGnfH8c7RldX18fXXR/f1/m8/mr32zqG3TUr2maMgyDDewRPOvbtPl8fpJv0+ASNE1TFovFuadxcewZARHECIggRkAEMQIiiBEQQYyACGIERBAjIIIYARHECIggRkAEMQIiiBEQ4Vl/tZ/GGcSXzec7TdXFyBnEl83nO13VPaY5g/iy+Xynq7oYAZepuhg5g/iy+Xynq7o9I2cQXzaf73RVF6NSnEF86Xy+01TdYxpwmcQIiCBGQAQxAiKIERBBjIAIYgREECMgghgBEcQIiCBGQAQxAiKIERChyr/an5qxzoQ+NUd08BpiFG7sM6FPzRnT/CmPaeHGPhP61JwxzZ8SIyCCGIUb+0zoU3PGNH/KnlG4Mc+EPjUb2LyGGFXAmdBMgcc0IIIYARHECIggRkAEMQIiiBEQQYyACGIERBAjIIIYARHECIggRkAEMQIiiBEQQYyACGIERBAjIIIYARHECIggRkAEMQIiiBEQQYyACGIERBAjIIIYARHECIggRkAEMQIiiBEQQYyACGIERBAjIMLVuSfwJ3a7Xen7vuz3+5OOe3NzU7quK03TnHRczmus9XJqU19/1cVot9uV2WxWttvtKOOvVqsyDMNkF8SlGXu9nNqU1191j2l934+6sLbbben7frTxeVtjr5dTm/L6qy5GwGWqLkZd15W2bUcbv23b0nXdaOPztsZeL6c25fVX3Z5R0zRlGAYb2DzLmOvl1Ka+/qqLUSk/FthisTj3NKiE9VKH6h7TgMskRkAEMQIiiBEQQYyACGIERBAjIIIYARHECIggRkAEMQIiiBEQQYyACGIERBAjIIIYARHECIggRkAEMQIiiBEQQYyACGIERBAjIIIYARHECIggRkAEMQIiiBEQQYyACGIERBAjIIIYARHECIhwde4J8PZ2u13p+77s9/uTjntzc1O6ritN05x0XKZBjCZmt9uV2WxWttvtKOOvVqsyDIMg8WIe0yam7/vRQlRKKdvttvR9P9r4XC4xAiKI0cR0XVfath1t/LZtS9d1o43P5bJnNDFN05RhGGxgE0eMJqhpmrJYLM49DfgHj2lABDECIogREEGMgAhiBEQQIyCCGAERxAiIIEZABDECIogREEGMgAhiBESo8q/2neHMS1gvdaguRs5w5iWsl3pU95jmDGdewnqpR3UxAi5TdTFyhjMvYb3Uo7o9I2c48xLWSz2qi1EpznDmZayXOlT3mAZcJjECIogREEGMgAhiBEQQIyCCGAERxAiIIEZABDECIogREEGMgAhiBEQQIyCCGAERxAiIIEZABDECIogREEGMgAhiBEQQIyCCGAERxAiIIEZABDECIogREEGMgAhiBEQQIyCCGAERxAiIIEZABDECIogREEGMgAhiBEQQIyCCGAERxAiIIEZABDECIogREEGMgAhiBEQQIyCCGAERxAiIIEZABDECIogREEGMgAhiBEQQIyCCGAERxAiIIEZABDECIogREEGMgAhiBEQQIyCCGAERxAiIIEZABDECIogREEGMgAhiBEQQIyCCGAERxAiIIEZAhKvnXLRer8tyuRx5KsClW6/Xv33tKEaHw+Hoos1mUzabzUknBVDK3805ekx7fHx888kA0/WzOUcxur6+fvPJANP1szn/enp6evrvF75+/Vo+fPhQvn//fpaJAdPx7t278tdff5Xb29vjGJXyI0ifPn0qh8Oh3N3d+W0JOJnD4VAeHx/L9fV1+fz5c7m9vS2l/I/fjADOwf8zAiL8B+YPspldpaNlAAAAAElFTkSuQmCC;" vertex="1" parent="1">
          <mxGeometry x="-262" y="72" width="1130.1" height="1200" as="geometry" />
        </mxCell>
      </root>
    </mxGraphModel>
  </diagram>
  <diagram id="ir-mlBJMI7kQS99J0A1E" name="Page-6">
    <mxGraphModel dx="1762" dy="843" grid="0" gridSize="10" guides="1" tooltips="1" connect="1" arrows="1" fold="1" page="0" pageScale="1" pageWidth="850" pageHeight="1100" math="0" shadow="0">
      <root>
        <mxCell id="0" />
        <mxCell id="1" parent="0" />
        <mxCell id="piRQHYSlXN70Maca_Us_-1" value="" style="rounded=0;whiteSpace=wrap;html=1;strokeWidth=10;" vertex="1" parent="1">
          <mxGeometry x="-91" y="91" width="1200" height="200" as="geometry" />
        </mxCell>
      </root>
    </mxGraphModel>
  </diagram>
</mxfile>
